<svg width="158" height="42" viewBox="0 0 158 42" fill="none" xmlns="http://www.w3.org/2000/svg">
<path d="M62.7205 24.4715C62.529 26.1191 61.9225 27.3922 60.901 28.2908C59.8866 29.1824 58.5352 29.6281 56.8469 29.6281C55.0168 29.6281 53.5484 28.9684 52.4418 27.6489C51.3422 26.3295 50.7925 24.5643 50.7925 22.3533V20.8555C50.7925 19.4076 51.0479 18.1345 51.5586 17.0362C52.0764 15.9378 52.8071 15.0962 53.7505 14.5114C54.694 13.9194 55.7864 13.6234 57.0278 13.6234C58.6736 13.6234 59.993 14.087 60.9861 15.0142C61.9792 15.9343 62.5574 17.2109 62.7205 18.8442H60.6669C60.4896 17.6032 60.1029 16.7045 59.5071 16.1482C58.9183 15.5919 58.0919 15.3137 57.0278 15.3137C55.7226 15.3137 54.6976 15.7987 53.9527 16.7687C53.215 17.7387 52.8461 19.1188 52.8461 20.909V22.4174C52.8461 24.1078 53.1972 25.4522 53.8995 26.4507C54.6018 27.4492 55.5843 27.9485 56.8469 27.9485C57.9819 27.9485 58.8509 27.6917 59.4539 27.1782C60.0639 26.6576 60.4683 25.7553 60.6669 24.4715H62.7205Z" fill="white"/>
<path d="M67.3491 29.4142H65.3807V12.9815H67.3491V29.4142Z" fill="white"/>
<path d="M69.988 23.5194C69.988 22.3854 70.2079 21.3654 70.6477 20.4597C71.0946 19.5539 71.7118 18.8549 72.4992 18.3628C73.2937 17.8707 74.1981 17.6246 75.2125 17.6246C76.7802 17.6246 78.0464 18.1702 79.0112 19.2614C79.983 20.3527 80.4689 21.8041 80.4689 23.6157V23.7547C80.4689 24.8816 80.2526 25.8944 79.8199 26.7931C79.3942 27.6846 78.7806 28.38 77.979 28.8793C77.1845 29.3785 76.2695 29.6281 75.2338 29.6281C73.6732 29.6281 72.4069 29.0825 71.4351 27.9913C70.4704 26.9001 69.988 25.4558 69.988 23.6585V23.5194ZM71.9671 23.7547C71.9671 25.0385 72.2615 26.0692 72.8503 26.8466C73.4462 27.624 74.2407 28.0127 75.2338 28.0127C76.234 28.0127 77.0285 27.6204 77.6173 26.8359C78.206 26.0442 78.5004 24.9387 78.5004 23.5194C78.5004 22.2498 78.1989 21.2228 77.596 20.4383C77.0001 19.6466 76.2056 19.2507 75.2125 19.2507C74.2407 19.2507 73.4568 19.6394 72.8609 20.4169C72.2651 21.1943 71.9671 22.3069 71.9671 23.7547Z" fill="white"/>
<path d="M90.0454 28.2694C89.2793 29.1752 88.1549 29.6281 86.6724 29.6281C85.4452 29.6281 84.5088 29.2715 83.8633 28.5583C83.2248 27.8379 82.9021 26.7752 82.895 25.3702V17.8386H84.8635V25.3167C84.8635 27.0712 85.5728 27.9485 86.9916 27.9485C88.4954 27.9485 89.4956 27.385 89.9922 26.2582V17.8386H91.9607V29.4142H90.088L90.0454 28.2694Z" fill="white"/>
<path d="M94.4825 23.5301C94.4825 21.7542 94.901 20.3277 95.7381 19.2507C96.5751 18.1666 97.6711 17.6246 99.026 17.6246C100.374 17.6246 101.441 18.0882 102.229 19.0154V12.9815H104.197V29.4142H102.388L102.293 28.1732C101.505 29.1431 100.409 29.6281 99.0047 29.6281C97.6711 29.6281 96.5822 29.079 95.7381 27.9806C94.901 26.8822 94.4825 25.4486 94.4825 23.6799V23.5301ZM96.451 23.7547C96.451 25.0671 96.7206 26.0941 97.2597 26.8359C97.7988 27.5776 98.5436 27.9485 99.4942 27.9485C100.743 27.9485 101.654 27.385 102.229 26.2582V20.9411C101.64 19.8498 100.736 19.3042 99.5155 19.3042C98.5507 19.3042 97.7988 19.6787 97.2597 20.4276C96.7206 21.1764 96.451 22.2855 96.451 23.7547Z" fill="white"/>
<path d="M109.624 27.7345H116.966V29.4142H107.57V13.8374H109.624V27.7345Z" fill="white"/>
<path d="M121.126 29.4142H119.158V17.8386H121.126V29.4142ZM118.998 14.7681C118.998 14.4472 119.094 14.1762 119.286 13.9551C119.484 13.734 119.775 13.6234 120.158 13.6234C120.541 13.6234 120.832 13.734 121.031 13.9551C121.229 14.1762 121.329 14.4472 121.329 14.7681C121.329 15.0891 121.229 15.3565 121.031 15.5705C120.832 15.7845 120.541 15.8915 120.158 15.8915C119.775 15.8915 119.484 15.7845 119.286 15.5705C119.094 15.3565 118.998 15.0891 118.998 14.7681Z" fill="white"/>
<path d="M126.149 17.8386L126.213 19.2935C127.092 18.1809 128.241 17.6246 129.66 17.6246C132.093 17.6246 133.32 19.0047 133.342 21.7648V29.4142H131.373V21.7542C131.366 20.9197 131.175 20.3027 130.799 19.9033C130.43 19.5039 129.852 19.3042 129.064 19.3042C128.426 19.3042 127.865 19.4754 127.383 19.8178C126.901 20.1601 126.525 20.6094 126.255 21.1657V29.4142H124.287V17.8386H126.149Z" fill="white"/>
<path d="M143.418 28.2694C142.652 29.1752 141.528 29.6281 140.045 29.6281C138.818 29.6281 137.882 29.2715 137.236 28.5583C136.598 27.8379 136.275 26.7752 136.268 25.3702V17.8386H138.236V25.3167C138.236 27.0712 138.946 27.9485 140.364 27.9485C141.868 27.9485 142.869 27.385 143.365 26.2582V17.8386H145.334V29.4142H143.461L143.418 28.2694Z" fill="white"/>
<path d="M152.197 22.0644L154.75 17.8386H157.049L153.282 23.5622L157.166 29.4142H154.889L152.229 25.0813L149.569 29.4142H147.281L151.165 23.5622L147.398 17.8386H149.675L152.197 22.0644Z" fill="white"/>
<path fill-rule="evenodd" clip-rule="evenodd" d="M22.1036 0.5C22.3272 0.561082 22.5508 0.624346 22.7766 0.681066C27.4596 1.88962 30.965 4.52489 32.5772 9.34604C33.2714 11.4228 32.8072 13.4604 31.9319 15.3823C31.4953 16.3378 31.112 17.3413 30.4177 18.1593C30.2197 18.395 30.0897 18.6982 29.7107 18.8422C30.1941 14.4573 30.0621 10.1532 27.0571 6.70204C24.1928 3.41232 20.4979 1.5384 15.9255 1.29843C16.7795 0.681066 17.6569 0.864313 18.3597 0.5C19.6077 0.5 20.8556 0.5 22.1036 0.5Z" fill="white"/>
<path fill-rule="evenodd" clip-rule="evenodd" d="M41.4065 22.835C41.0659 22.9888 41.1085 23.3229 41.0413 23.6036C40.024 27.9412 37.5391 31.1292 33.5125 33.1209C30.8036 34.4621 28.1461 34.0254 25.5469 32.8469C24.6618 32.4459 23.7745 32.0003 22.988 31.401C22.7505 31.2206 22.4839 31.078 22.2957 30.7082C22.7393 30.6168 23.1247 30.7171 23.5146 30.7438C27.2543 31 30.9918 30.8173 34.1243 28.5784C37.3329 26.2837 39.2084 22.9687 40.0621 19.119C40.2346 18.3348 40.3399 17.5351 40.4878 16.684C41.1286 17.3457 40.7298 18.3504 41.4065 18.9185C41.4065 20.224 41.4065 21.5295 41.4065 22.835Z" fill="white"/>
<path fill-rule="evenodd" clip-rule="evenodd" d="M0 19.1777C0.479227 16.927 1.27868 14.812 2.69397 12.9617C4.54593 10.5397 7.01597 9.01852 9.92492 8.19342C10.9976 7.89096 12.1195 8.13782 13.1698 8.358C15.3554 8.81169 17.2656 9.90145 19.1108 11.2759C8.49396 10.195 2.36926 14.8276 0.707643 25.3159C0.223938 24.6198 0.342625 23.7769 0 23.0875C0 21.7842 0 20.481 0 19.1777Z" fill="white"/>
<path fill-rule="evenodd" clip-rule="evenodd" d="M9.25737 37.1841C7.1006 36.0844 5.25195 34.6121 4.04432 32.3836C1.77589 28.1942 1.44917 23.8688 3.42604 19.4453C4.22423 17.6562 5.72342 16.6345 7.30739 15.8515C8.51294 15.2559 9.80328 14.8165 11.1329 14.5889C11.319 14.5577 11.561 14.4172 11.6623 14.6982C11.7409 14.9168 11.5237 15.0195 11.3873 15.1288C8.728 17.2101 7.07992 20.1189 5.74616 23.2621C5.21886 24.5046 5.25401 25.8653 5.38842 27.1971C5.75443 30.8533 6.95172 34.1436 9.16225 36.9767C9.20774 37.0325 9.22635 37.115 9.25737 37.1841Z" fill="white"/>
<path fill-rule="evenodd" clip-rule="evenodd" d="M3.18506 9.71417C3.62346 8.57063 4.3059 7.62013 5.146 6.83958C7.18901 4.94067 9.5106 3.46351 12.3527 2.93055C15.171 2.4018 17.9137 2.61162 20.5204 3.8286C22.7534 4.86933 23.9887 6.74726 24.7705 8.92943C25.1528 9.99954 25.481 11.1032 25.481 12.3685C18.9352 4.32169 11.4499 4.13494 3.18506 9.71417Z" fill="white"/>
<path fill-rule="evenodd" clip-rule="evenodd" d="M37.16 31.0919C36.2518 33.1478 34.8483 34.7786 32.9627 35.9543C28.7611 38.5759 24.3432 39.0606 19.7956 36.9153C17.6137 35.8842 16.3205 34.0302 15.622 31.7786C15.3366 30.8644 14.982 29.9629 14.902 28.9934C14.889 28.8467 14.7917 28.6638 14.9712 28.5766C15.1528 28.4895 15.2609 28.6596 15.3474 28.7829C16.9433 31.043 19.2614 32.4441 21.5861 33.8261C23.4263 34.921 25.446 35.0677 27.5479 34.8976C31.157 34.6064 34.3575 33.3796 37.16 31.0919Z" fill="white"/>
<path fill-rule="evenodd" clip-rule="evenodd" d="M28.6663 26.2356C29.1995 25.8349 29.6966 25.472 30.1846 25.0957C31.7481 23.8891 32.8801 22.3352 33.9307 20.6922C37.356 15.3313 35.7676 10.3266 32.8642 5.41098C32.5253 4.8366 32.0622 4.33569 31.7142 3.73682C33.2099 4.33346 34.4933 5.24401 35.5416 6.42394C39.1341 10.4669 40.2006 15.0574 38.4766 20.2068C37.4757 23.19 35.2005 24.7796 32.2813 25.6545C31.3098 25.9462 30.3563 26.3135 29.326 26.3736C29.1362 26.3848 28.9464 26.4604 28.6663 26.2356Z" fill="white"/>
<path fill-rule="evenodd" clip-rule="evenodd" d="M24.4186 40.6772C22.6657 41.5338 20.8342 41.5737 19.005 41.4453C13.9447 41.0867 9.28767 37.3926 7.73315 32.4921C7.06818 30.3982 7.59798 28.3841 8.38723 26.4363C8.79057 25.4358 9.34872 24.5106 9.95046 23.6186C10.0769 23.4327 10.1728 23.0785 10.4388 23.1737C10.7528 23.2844 10.6133 23.6408 10.5827 23.8909C10.3669 25.728 10.4083 27.5496 10.7811 29.3646C11.3109 31.9366 12.0675 34.3779 14.1365 36.1752C17.0036 38.6653 20.2674 40.2169 24.0392 40.6219C24.1657 40.6352 24.2921 40.6595 24.4186 40.6772Z" fill="white"/>
<path fill-rule="evenodd" clip-rule="evenodd" d="M10.6177 13.387C10.6245 13.1496 10.7477 13.1221 10.8457 13.0896C13.0306 12.3575 15.2428 12.1327 17.496 12.6499C17.7241 12.7024 18.0776 12.6899 18.0479 13.0597C18.0137 13.4844 17.6328 13.4319 17.3843 13.3795C15.1333 12.8922 12.8778 12.9397 10.6177 13.387Z" fill="white"/>
<path fill-rule="evenodd" clip-rule="evenodd" d="M27.7934 11.2897C27.9557 11.8603 28.1155 12.4309 28.2827 13.0014C28.5065 13.77 28.5237 14.5693 28.7425 15.352C29.0548 16.4625 28.3737 17.5164 28.2188 18.6127C28.1991 18.7589 28.0565 18.8744 27.8893 18.8344C27.5795 18.7613 27.5771 18.5019 27.6312 18.2803C27.8795 17.2406 27.9434 16.189 27.9385 15.1257C27.936 13.8502 27.9188 12.577 27.7934 11.2897Z" fill="white"/>
<path fill-rule="evenodd" clip-rule="evenodd" d="M8.49414 22.0358C8.73666 21.2356 9.12509 20.5484 9.56478 19.9068C10.3338 18.7822 11.1461 17.7057 12.1615 16.8935C12.3094 16.7758 12.4869 16.5403 12.6623 16.8046C12.8063 17.0185 12.7392 17.2948 12.5697 17.427C10.9864 18.6501 9.80533 20.3777 8.60259 22.0766C8.59667 22.0862 8.56315 22.0622 8.49414 22.0358Z" fill="white"/>
<path fill-rule="evenodd" clip-rule="evenodd" d="M12.589 29.6315C11.7211 27.6899 11.4113 25.692 11.935 23.6336C11.9891 23.4232 12.026 23.1149 12.3899 23.1628C12.7538 23.2107 12.6948 23.5024 12.6431 23.7211C12.1784 25.6857 12.2694 27.6482 12.589 29.6315Z" fill="white"/>
<path fill-rule="evenodd" clip-rule="evenodd" d="M21.2341 32.8685C19.2019 31.9159 17.5658 30.7085 16.1861 29.2404C16.0206 29.0639 15.7573 28.7972 16.0742 28.6086C16.3772 28.4281 16.5753 28.727 16.7478 28.9075C18.0016 30.2312 19.3953 31.4285 20.9684 32.4714C21.0756 32.5416 21.2271 32.5857 21.2341 32.8685Z" fill="white"/>
<path fill-rule="evenodd" clip-rule="evenodd" d="M20.1724 9.13165C21.2418 9.35202 22.0996 9.88424 22.8612 10.5183C23.7496 11.2605 24.6874 11.9757 25.3196 12.9258C25.416 13.0713 25.5993 13.2418 25.3713 13.3915C25.181 13.5162 24.9835 13.4123 24.8425 13.2771C24.6897 13.1274 24.5558 12.9611 24.4194 12.801C23.296 11.4871 22.0127 10.3167 20.4732 9.37489C20.3627 9.30837 20.2734 9.21481 20.1724 9.13165Z" fill="white"/>
<path fill-rule="evenodd" clip-rule="evenodd" d="M28.6659 28.7592C26.7288 29.5388 24.7593 29.7886 22.7402 29.2664C22.5418 29.2139 22.2872 29.1665 22.2959 28.8466C22.3045 28.5568 22.5202 28.5243 22.7079 28.5693C24.6838 29.0515 26.6727 28.8841 28.6659 28.7592Z" fill="white"/>
<path fill-rule="evenodd" clip-rule="evenodd" d="M31.8513 20.9999C31.0124 22.8242 29.6973 24.1965 28.0296 25.2304C27.9019 25.3109 27.756 25.3811 27.6446 25.2118C27.5675 25.0942 27.6121 24.9621 27.6891 24.8631C27.7641 24.7661 27.8512 24.667 27.9526 24.6051C29.4825 23.662 30.7693 22.4527 31.8513 20.9999Z" fill="white"/>
</svg>
