<svg width="84" height="46" viewBox="0 0 84 46" fill="none" xmlns="http://www.w3.org/2000/svg">
<g filter="url(#filter0_d_41_747)">
<mask id="mask0_41_747" style="mask-type:alpha" maskUnits="userSpaceOnUse" x="7" y="4" width="70" height="32">
<rect x="7" y="4" width="70" height="32" fill="#D9D9D9"/>
</mask>
<g mask="url(#mask0_41_747)">
<rect x="7" y="4" width="70" height="32" rx="15.5" fill="#D55347"/>
<path fill-rule="evenodd" clip-rule="evenodd" d="M26.3318 17.0229C25.9598 18.1254 25.6118 19.1287 25.2998 20.033C24.7598 21.569 24.1958 23.2413 24.0638 23.6129C23.7998 24.3809 23.4638 25.4585 22.4438 25.954C22.0118 26.1398 21.5078 26.2265 20.8838 26.2265C20.5958 26.2265 20.3198 26.2142 20.0678 26.2018V24.5047C20.2478 24.5171 20.4278 24.5295 20.6198 24.5295H20.7518C21.0758 24.5295 21.3038 24.4676 21.4478 24.418C21.7238 24.3437 21.8678 24.0712 21.8678 23.6129L19.2158 17.0229H21.4118L22.8998 21.0983L24.1718 17.0229H26.3318ZM32.236 18.497C32.344 18.8314 32.392 19.2278 32.392 19.6985V20.9124C32.392 22.1883 31.948 23.0183 31.072 23.4146C30.64 23.6004 30.124 23.6995 29.512 23.6995C28.204 23.6995 27.34 23.2536 26.944 22.3741C26.764 22.0149 26.668 21.569 26.668 21.0239V19.5746C26.668 18.2864 27.208 17.4564 28.288 17.0972C28.66 16.9857 29.02 16.9114 29.44 16.9114H29.632C31.012 16.9114 31.852 17.4564 32.236 18.497ZM30.4239 19.6242C30.4239 19.1039 30.2799 18.7942 29.9919 18.7075C29.8839 18.6456 29.7519 18.6332 29.6079 18.6332H29.4519C29.1039 18.6332 28.8519 18.7818 28.7079 19.0791C28.6719 19.1906 28.6479 19.3145 28.6479 19.5003V21.1602C28.6479 21.73 28.9359 22.0149 29.5119 22.0149H29.5599C30.0159 22.0149 30.3039 21.8043 30.4119 21.3955C30.4119 21.284 30.4239 21.1602 30.4239 20.9744V19.6242ZM33.2439 22.7705C33.0639 22.3865 33.0039 21.8662 33.0039 20.8257V17.0105H35.0079V21.1973C35.0079 21.6061 35.1999 21.8662 35.5839 21.9529C35.7039 21.9653 35.8359 21.9777 35.9679 21.9653C36.1959 21.9529 36.5079 21.891 36.8319 21.6804L36.8439 17.0105H38.8359V23.6128H37.1919L37.1199 23.5013C37.0839 23.4146 37.0479 23.3403 37.0119 23.204C36.8559 23.2659 36.2079 23.6623 35.2359 23.6995C34.4439 23.7367 33.7599 23.6252 33.2439 22.7705ZM44.1039 22.1512V23.6377H43.6359C42.2319 23.6377 40.6839 23.7615 40.6839 21.3213C40.6839 21.2841 40.6719 20.6152 40.6719 19.9711V18.7076H39.7119V17.0106H40.6719V15.3631L42.6399 15.0163V17.0106H44.1399L43.9359 18.7076H42.6399V20.5904V18.7076V21.0488C42.6399 21.4823 42.6399 21.8168 43.0719 21.953C43.4199 22.1141 44.0439 22.1512 44.1039 22.1512ZM45.2439 22.7705C45.0639 22.3865 45.0039 21.8662 45.0039 20.8257V17.0105H47.0079V21.1973C47.0079 21.6061 47.1999 21.8662 47.5839 21.9529C47.7039 21.9653 47.8359 21.9777 47.9679 21.9653C48.1959 21.9529 48.5079 21.891 48.8319 21.6804L48.8439 17.0105H50.8359V23.6128H49.1919L49.1199 23.5013C49.0839 23.4146 49.0479 23.3403 49.0119 23.204C48.8559 23.2659 48.2079 23.6623 47.2359 23.6995C46.4439 23.7367 45.7599 23.6252 45.2439 22.7705ZM57.1598 17.8281C57.3158 18.0882 57.3878 18.7324 57.3878 19.7481V20.4046C57.3878 21.4699 57.3158 22.1388 57.1598 22.3989C57.1118 22.56 56.9678 22.7705 56.7398 23.0059C56.2598 23.4642 55.4438 23.6996 54.2798 23.6996C53.4758 23.6996 52.6118 23.6129 51.6638 23.4271V14.3349L53.6318 13.9757V17.1592C54.1718 16.9734 54.7238 16.9114 55.0478 16.9114C56.1878 16.9114 56.8838 17.2211 57.1598 17.8281ZM55.4078 19.3764C55.4078 18.9676 55.2278 18.7199 54.8558 18.6332H54.5558C54.2438 18.6332 53.9318 18.7199 53.6318 18.9057V21.9901L54.2078 22.0273H54.3638C54.9278 22.0273 55.2638 21.8414 55.3598 21.4574C55.3958 21.346 55.4078 21.2221 55.4078 21.0611V19.3764ZM63.5558 18.2369C63.7118 18.5961 63.7838 19.0916 63.7838 19.7233V20.9001H60.1958V21.0983C60.1958 21.5442 60.3278 21.8167 60.5918 21.9158C60.7718 21.9654 60.9758 22.0026 61.2998 22.0026H61.4558C62.1398 22.0026 62.8598 21.9282 63.6158 21.7672H63.6278V23.4271C63.6278 23.4518 63.2918 23.5138 62.6198 23.6253C62.1998 23.6748 61.7078 23.6996 61.1678 23.6996C59.7638 23.6996 58.8518 23.2041 58.4438 22.2255C58.2878 21.8291 58.2158 21.4204 58.2158 21.0116V19.426C58.2158 18.2616 58.6838 17.4936 59.6318 17.1096C60.0758 16.961 60.5078 16.8991 60.9758 16.8991C62.2958 16.8991 63.1598 17.345 63.5558 18.2369ZM61.8038 19.4136C61.8038 18.9553 61.7078 18.6828 61.5158 18.5961C61.3718 18.497 61.1918 18.4475 60.9878 18.4475C60.4238 18.4475 60.1958 18.7076 60.1958 19.2155V19.5251H61.8038V19.4136Z" fill="white"/>
</g>
</g>
<defs>
<filter id="filter0_d_41_747" x="0" y="0" width="84" height="46" filterUnits="userSpaceOnUse" color-interpolation-filters="sRGB">
<feFlood flood-opacity="0" result="BackgroundImageFix"/>
<feColorMatrix in="SourceAlpha" type="matrix" values="0 0 0 0 0 0 0 0 0 0 0 0 0 0 0 0 0 0 127 0" result="hardAlpha"/>
<feOffset dy="3"/>
<feGaussianBlur stdDeviation="3.5"/>
<feComposite in2="hardAlpha" operator="out"/>
<feColorMatrix type="matrix" values="0 0 0 0 0 0 0 0 0 0 0 0 0 0 0 0 0 0 0.22 0"/>
<feBlend mode="normal" in2="BackgroundImageFix" result="effect1_dropShadow_41_747"/>
<feBlend mode="normal" in="SourceGraphic" in2="effect1_dropShadow_41_747" result="shape"/>
</filter>
</defs>
</svg>
