<svg width="33" height="32" viewBox="0 0 33 32" fill="none" xmlns="http://www.w3.org/2000/svg">
<path fill-rule="evenodd" clip-rule="evenodd" d="M11.1326 19.2233H12.2619L12.6621 18.8373C11.2613 17.2078 10.418 15.0923 10.418 12.791C10.418 7.65952 14.5775 3.5 19.709 3.5C24.8405 3.5 29 7.65952 29 12.791C29 17.9225 24.8405 22.082 19.709 22.082C17.4077 22.082 15.2922 21.2387 13.6627 19.8379L13.2767 20.2381V21.3674L6.12979 28.5L4 26.3702L11.1326 19.2233ZM19.709 19.2233C23.2682 19.2233 26.1412 16.3502 26.1412 12.791C26.1412 9.23185 23.2682 6.35878 19.709 6.35878C16.1498 6.35878 13.2767 9.23185 13.2767 12.791C13.2767 16.3502 16.1498 19.2233 19.709 19.2233Z" fill="#0B63CE"/>
</svg>
